<svg width="34" height="34" viewBox="0 0 34 34" fill="none" xmlns="http://www.w3.org/2000/svg">
<path d="M14.5283 5.84692C14.692 5.8388 14.8553 5.87076 15.0039 5.9397C15.1525 6.00863 15.2824 6.11232 15.3818 6.24243L26.8418 21.2151H26.8428C26.9418 21.3441 27.0079 21.4954 27.0361 21.6555C27.0643 21.8155 27.0537 21.9801 27.0049 22.135C26.956 22.2901 26.8699 22.4312 26.7549 22.5461C26.6399 22.661 26.4988 22.7464 26.3438 22.7952C23.931 23.5551 18.4471 25.1714 14.2744 25.5696L14.2539 25.5715L14.2344 25.5647L14.2656 25.47L14.2334 25.5647H14.2324L14.2305 25.5637C14.2283 25.563 14.2246 25.5622 14.2207 25.5608C14.2127 25.5579 14.2013 25.5529 14.1865 25.5471C14.1571 25.5356 14.1141 25.5185 14.0596 25.4934C13.9502 25.4431 13.7927 25.3622 13.5977 25.2415C13.2075 24.9999 12.6663 24.5971 12.0557 23.9475C10.8337 22.6476 9.33527 20.3637 8.20117 16.4231L8.18945 16.386L8.20801 16.3508V16.3499C8.20838 16.3491 8.20922 16.3474 8.20996 16.3459C8.21143 16.343 8.21399 16.3388 8.2168 16.3333C8.2226 16.3218 8.2309 16.3047 8.24219 16.2825C8.26505 16.2375 8.29883 16.1703 8.34277 16.0842C8.43067 15.9121 8.55907 15.6618 8.7207 15.3489C9.04404 14.723 9.50106 13.8468 10.0352 12.845C11.1032 10.8417 12.4816 8.33509 13.7188 6.32544C13.8049 6.18605 13.9234 6.06892 14.0645 5.9856C14.2055 5.90237 14.3648 5.85504 14.5283 5.84692Z" stroke="white" stroke-width="0.2"/>
<path d="M8.38965 16.3588C9.29412 18.6267 10.7802 20.8875 12.043 22.5834C12.6739 23.4307 13.2486 24.136 13.665 24.6293C13.873 24.8756 14.0417 25.0688 14.1582 25.2006C14.2165 25.2665 14.2623 25.317 14.293 25.351C14.3082 25.3679 14.3194 25.3815 14.3271 25.39C14.3308 25.394 14.334 25.3967 14.3359 25.3988C14.3369 25.3998 14.3374 25.4012 14.3379 25.4017H14.3389V25.4027L14.4131 25.4828L14.3262 25.5492C12.3718 27.044 10.4907 27.9965 8.88184 28.4594C7.37756 28.8921 6.09657 28.901 5.21777 28.5052L5.04395 28.4183C4.2584 27.9513 3.59924 27.2007 3.11035 26.4115C2.62149 25.6223 2.29766 24.7853 2.18945 24.1381L2.18848 24.1332C2.1108 23.485 2.18643 22.8275 2.41016 22.2142C2.57257 21.7676 2.81297 21.3532 3.12012 20.9906C4.14873 19.7631 5.42918 18.5939 6.4502 17.7328C6.96081 17.3022 7.40752 16.9482 7.72656 16.7015C7.88614 16.5782 8.01368 16.4811 8.10156 16.4154C8.1455 16.3826 8.18008 16.3582 8.20312 16.3412C8.21464 16.3327 8.22357 16.326 8.22949 16.3217C8.23212 16.3197 8.23389 16.3178 8.23535 16.3168L8.2373 16.3158L8.3418 16.2396L8.38965 16.3588Z" stroke="white" stroke-width="0.2"/>
<path d="M7.97363 24.6342C8.10279 24.6637 8.21464 24.7437 8.28516 24.8558C8.35568 24.9681 8.37903 25.1036 8.34961 25.2328C8.32011 25.3621 8.24021 25.4747 8.12793 25.5453L7.16016 26.1537L7.15918 26.1527C7.08026 26.2023 6.98966 26.2286 6.89648 26.2289L6.89746 26.2299L6.89551 26.2289L6.89453 26.2299V26.2289C6.6474 26.2336 6.47599 26.0626 6.41895 25.8685C6.36171 25.6733 6.41385 25.435 6.62988 25.3051L7.5957 24.6986C7.70799 24.628 7.84434 24.6047 7.97363 24.6342ZM7.24512 23.476C7.37441 23.5055 7.48705 23.5853 7.55762 23.6976C7.62799 23.8098 7.65056 23.9454 7.62109 24.0746C7.59157 24.2038 7.51261 24.3165 7.40039 24.3871L6.43262 24.9945C6.35333 25.0445 6.26168 25.0706 6.16797 25.0707L6.16895 25.0717C5.92051 25.0776 5.74765 24.905 5.69043 24.7103C5.63325 24.5156 5.68566 24.278 5.90039 24.1478L6.86816 23.5404C6.98043 23.4699 7.11585 23.4465 7.24512 23.476ZM6.51758 22.3168C6.64668 22.3463 6.75857 22.4264 6.8291 22.5385C6.89966 22.6507 6.92306 22.7871 6.89355 22.9164C6.86398 23.0455 6.78404 23.1574 6.67188 23.2279L5.7041 23.8353L5.70508 23.8363C5.62597 23.8862 5.53394 23.9112 5.44043 23.9115L5.44141 23.9125L5.43945 23.9115L5.43848 23.9125V23.9115C5.1914 23.9163 5.02001 23.7461 4.96289 23.5521C4.90566 23.3575 4.95746 23.1199 5.17188 22.9896L6.13965 22.3812C6.25193 22.3107 6.38829 22.2873 6.51758 22.3168Z" fill="white" stroke="white" stroke-width="0.2"/>
<path d="M13.4268 27.3197C13.521 27.3414 13.609 27.3924 13.6797 27.475L13.7441 27.5677L13.7451 27.5697C14.1557 28.3312 14.632 29.0556 15.168 29.7347H15.167C15.2688 29.8621 15.3436 30.0091 15.3867 30.1664C15.4293 30.3219 15.4396 30.4842 15.418 30.6439L15.4189 30.6449C15.371 31.1366 14.9926 31.4461 14.6436 31.6742C14.2993 31.9232 13.8849 32.0572 13.46 32.057C13.1238 32.0575 12.7927 31.9727 12.498 31.8109C10.7132 30.8276 8.64226 29.3329 8.05078 28.8988L8.0498 28.8978C7.94479 28.8188 7.87474 28.7017 7.85547 28.5717C7.83629 28.4415 7.86942 28.3086 7.94727 28.2025C8.02511 28.0965 8.14157 28.025 8.27148 28.0043C8.40138 27.9836 8.53464 28.0156 8.6416 28.0922H8.64258C9.22382 28.5186 11.2486 29.981 12.9785 30.9349H12.9795C13.227 31.0686 13.4602 31.0866 13.6816 31.0306C13.9063 30.9738 14.1253 30.8393 14.3379 30.6605L14.3428 30.6566C14.3656 30.6399 14.385 30.6184 14.3994 30.5941C14.4138 30.5699 14.4229 30.5429 14.4268 30.515C14.4306 30.4871 14.4293 30.4583 14.4219 30.431C14.4182 30.4174 14.4125 30.4045 14.4062 30.392L14.3838 30.3568C13.8113 29.6315 13.3029 28.8576 12.8643 28.0443L12.8633 28.0433C12.7905 27.9032 12.7854 27.7628 12.8301 27.642C12.874 27.5234 12.9638 27.4297 13.0693 27.3724C13.1751 27.3152 13.3032 27.2913 13.4268 27.3197ZM19.3027 11.2777C21.2559 10.5532 23.4497 12.0939 23.418 14.182L23.4189 14.2845C23.4126 14.548 23.3348 14.9623 23.2021 15.3275C23.1261 15.5369 23.0296 15.7381 22.9121 15.889C22.7959 16.0382 22.6448 16.1552 22.4609 16.1556H22.46C22.3694 16.1545 22.2803 16.1288 22.2031 16.0814C22.126 16.0341 22.0625 15.9672 22.0205 15.8871C21.9785 15.807 21.959 15.7166 21.9639 15.6263C21.9688 15.5359 21.9983 15.4476 22.0488 15.3724H22.0498C22.2993 15.0095 22.4273 14.5764 22.416 14.1361C22.4047 13.6961 22.2548 13.2709 21.9873 12.9213C21.7196 12.5716 21.3478 12.3146 20.9258 12.1888C20.5039 12.0632 20.053 12.0742 19.6377 12.2201L19.6357 12.2211C19.4859 12.2714 19.3469 12.2547 19.2344 12.1918C19.1239 12.13 19.045 12.0267 19.0049 11.9135C18.9649 11.8002 18.9617 11.6706 19.0088 11.5531C19.0569 11.4335 19.1543 11.3328 19.3027 11.2777Z" fill="white" stroke="white" stroke-width="0.2"/>
<path d="M13.3789 6.11523C13.8618 5.28616 15.135 5.22195 15.6992 5.99902L27.1611 20.9727C27.2988 21.1525 27.3914 21.3629 27.4307 21.5859C27.4699 21.8093 27.454 22.0396 27.3857 22.2559C27.3174 22.4719 27.1984 22.6689 27.0381 22.8291C26.8777 22.9893 26.681 23.1086 26.4648 23.1768C24.228 23.8794 18.5375 25.5748 14.2744 25.9697L14.2637 25.9707V25.9697C13.9522 25.9644 13.7834 25.7285 13.7715 25.4941C13.7597 25.2592 13.9049 25.0076 14.2168 24.9727H14.2188C18.3806 24.5748 23.9559 22.918 26.1641 22.2227C26.227 22.2028 26.2843 22.1678 26.3311 22.1211C26.3778 22.0744 26.4128 22.0171 26.4326 21.9541C26.4525 21.8911 26.4568 21.8238 26.4453 21.7588C26.4338 21.6939 26.4064 21.6324 26.3662 21.5801L14.9062 6.60742H14.9053C14.8649 6.55453 14.8123 6.51145 14.752 6.4834C14.6917 6.45547 14.6249 6.44307 14.5586 6.44629C14.4923 6.44959 14.4274 6.46826 14.3701 6.50195C14.3128 6.5357 14.2646 6.58316 14.2295 6.63965C11.7991 10.5877 8.77602 16.5575 8.74414 16.6211L8.74316 16.6221C8.67077 16.7623 8.5594 16.8466 8.43457 16.8789C8.31206 16.9106 8.18383 16.8908 8.07617 16.8369C7.96849 16.783 7.87574 16.6919 7.82812 16.5742C7.77974 16.4545 7.78096 16.3144 7.85059 16.1719L7.85156 16.1709C7.88161 16.1108 10.925 10.1014 13.3789 6.11523Z" fill="white" stroke="white" stroke-width="0.2"/>
<path d="M8.30566 15.9027C8.34442 15.8956 8.39753 15.8936 8.44531 15.9183C8.51511 15.94 8.57964 15.9766 8.63379 16.0258C8.68989 16.0768 8.73356 16.1399 8.76172 16.2103C10.3037 20.0751 13.6106 23.9723 14.4414 24.9164L14.6338 25.1312L14.6348 25.1322C14.6812 25.1835 14.7162 25.2444 14.7383 25.3099C14.7602 25.3753 14.7686 25.4444 14.7627 25.5131C14.7567 25.582 14.7362 25.6495 14.7031 25.7103C14.67 25.771 14.6249 25.8242 14.5703 25.8666L14.5693 25.8676C11.7841 27.9974 8.90369 29.1986 6.75781 29.1986C6.03274 29.1986 5.38689 29.0611 4.85645 28.7719L4.85352 28.7699C4.02138 28.2805 3.31868 27.5009 2.79395 26.6644C2.26925 25.828 1.91715 24.9268 1.79199 24.1879V24.184C1.71695 23.5697 1.76848 22.9462 1.94434 22.3529C2.12026 21.7595 2.41668 21.208 2.81445 20.7338L2.81543 20.7328C3.87424 19.5182 5.18703 18.2613 6.27051 17.3363C6.81208 16.8739 7.29805 16.4925 7.66797 16.2406C7.85239 16.115 8.01171 16.0197 8.13574 15.9623C8.19723 15.9338 8.25485 15.912 8.30566 15.9027ZM8.08691 17.182C7.1416 17.9142 5.07201 19.5961 3.58008 21.3763C3.27069 21.7451 3.04032 22.1737 2.90332 22.6351C2.76636 23.0965 2.7262 23.5812 2.78418 24.059C2.87873 24.6091 3.1691 25.3606 3.6123 26.0804C4.05643 26.8017 4.64818 27.4815 5.33789 27.8949C5.99267 28.2507 7.10129 28.3187 8.53613 27.9379C9.9467 27.5635 11.657 26.7579 13.5293 25.3939C12.5176 24.2321 9.68586 20.81 8.08691 17.182ZM14.8242 9.51306C14.9665 9.53382 15.0947 9.61071 15.1807 9.72595L25.1025 23.0365L25.1885 23.1508L25.0518 23.1918C24.7675 23.277 24.4637 23.3663 24.1455 23.4584L24.0791 23.4779L24.0381 23.4222L14.3115 10.3744C14.2256 10.2591 14.1893 10.1143 14.21 9.97205C14.2307 9.82987 14.3068 9.70156 14.4219 9.6156C14.5371 9.52971 14.682 9.49241 14.8242 9.51306ZM31.6826 15.6068C32.3372 15.5367 32.4558 16.5057 31.8076 16.599H31.8057L29.8721 16.8441C29.8511 16.8468 29.8297 16.848 29.8086 16.848H29.8076C29.192 16.8429 29.1305 15.936 29.7451 15.8519H29.7461L31.6807 15.6068H31.6826ZM30.0479 6.54724C30.1797 6.55982 30.3013 6.62484 30.3857 6.72693C30.4702 6.82917 30.5106 6.96114 30.498 7.09314C30.4854 7.22496 30.4214 7.34665 30.3193 7.43103L28.8154 8.67322C28.7651 8.71477 28.7069 8.74577 28.6445 8.76501C28.5818 8.78429 28.5155 8.79168 28.4502 8.78552C28.3848 8.77932 28.3207 8.75963 28.2627 8.72888C28.2048 8.69815 28.1531 8.65633 28.1113 8.60583C28.0696 8.55529 28.0388 8.49661 28.0195 8.43396C28.0003 8.37138 27.9929 8.30577 27.999 8.2406C28.0052 8.17521 28.0249 8.11114 28.0557 8.0531C28.0864 7.99516 28.1282 7.94353 28.1787 7.90173L29.6826 6.65955C29.7847 6.57541 29.9161 6.53474 30.0479 6.54724ZM22.7422 1.94568C22.8074 1.95482 22.87 1.97666 22.9268 2.01013C22.9836 2.04371 23.0337 2.08814 23.0732 2.14099C23.1127 2.19376 23.1411 2.25388 23.1572 2.31775C23.1734 2.38174 23.1767 2.44875 23.167 2.51404C23.1573 2.57921 23.1356 2.64216 23.1016 2.69861L23.1006 2.69763L22.1094 4.37634C22.076 4.43283 22.032 4.48242 21.9795 4.52185C21.927 4.56128 21.8673 4.59047 21.8037 4.60681C21.7401 4.62316 21.6734 4.62679 21.6084 4.61755C21.5436 4.6083 21.4812 4.58636 21.4248 4.5531C21.3107 4.48564 21.2283 4.37487 21.1953 4.24646C21.1623 4.11809 21.1816 3.98168 21.249 3.86755L22.2402 2.18884C22.2733 2.13196 22.3178 2.08221 22.3701 2.04236C22.4225 2.00251 22.4822 1.97312 22.5459 1.95642C22.6098 1.93972 22.6768 1.93653 22.7422 1.94568Z" fill="white" stroke="white" stroke-width="0.2"/>
</svg>
