<svg width="150" height="113" viewBox="0 0 150 113" fill="none" xmlns="http://www.w3.org/2000/svg">
<path d="M88.5015 63.875L129.377 54.75V73H83.9599V57.7293C93.2657 53.7006 99.8557 43.6722 99.8557 31.9375C99.8557 16.6531 88.6741 4.68569 74.8765 4.68569C61.0789 4.68569 49.8974 16.6486 49.8974 31.9375C49.8974 43.6722 56.4873 53.7006 65.7932 57.7293V73H20.3765V54.75L61.2515 63.875V61.5527C47.9354 56.8168 38.5432 45.3421 38.5432 31.9375C38.5432 14.2989 54.8114 0 74.8765 0C94.9416 0 111.21 14.2989 111.21 31.9375C111.21 45.3421 101.818 56.8123 88.5015 61.5527V63.875Z" fill="#202020"/>
<path d="M7.77205 113C6.71551 113 5.72049 112.794 4.78697 112.381C3.8607 111.962 3.0104 111.346 2.23609 110.536C1.90321 110.196 1.59928 109.809 1.32429 109.374C1.0493 108.933 0.814111 108.445 0.618725 107.909C0.423338 107.374 0.27137 106.787 0.162822 106.151C0.0542741 105.507 0 104.808 0 104.056C0 103.52 0.0976934 102.974 0.29308 102.417C0.495703 101.852 0.770692 101.313 1.11805 100.799C1.4654 100.278 1.87427 99.7969 2.34464 99.3555C2.81502 98.9068 3.32157 98.5233 3.86431 98.2049C4.60244 97.7562 5.33695 97.4487 6.06784 97.2822C6.80597 97.1085 7.48621 97.0217 8.10855 97.0217C8.41972 97.0217 8.74536 97.047 9.08548 97.0977C9.4256 97.1483 9.74763 97.2135 10.0516 97.2931C10.3627 97.3727 10.645 97.4595 10.8982 97.5536C11.1588 97.6477 11.3614 97.7381 11.5061 97.825C11.8535 98.0348 12.2081 98.2953 12.5699 98.6065C12.9317 98.9177 13.2718 99.2542 13.5902 99.616C13.9086 99.9778 14.1945 100.351 14.4478 100.734C14.7083 101.11 14.9109 101.469 15.0556 101.809C15.3017 102.373 15.4681 102.938 15.555 103.502C15.6418 104.066 15.6852 104.653 15.6852 105.261C15.6852 105.912 15.6165 106.523 15.479 107.095C15.3487 107.659 15.1569 108.191 14.9037 108.691C14.6504 109.19 14.3392 109.66 13.9701 110.102C13.6083 110.536 13.1958 110.952 12.7327 111.35C12.3926 111.632 12.0452 111.878 11.6906 112.088C11.336 112.291 10.9561 112.461 10.5509 112.598C10.1529 112.736 9.72592 112.837 9.27001 112.902C8.81411 112.967 8.31479 113 7.77205 113ZM2.83311 105.174C2.83311 105.521 2.8512 105.876 2.88738 106.237C2.92356 106.592 2.98146 106.947 3.06106 107.301C3.14066 107.649 3.24197 107.985 3.36499 108.311C3.49525 108.636 3.65084 108.94 3.83175 109.223C4.06332 109.606 4.32022 109.982 4.60244 110.351C4.8919 110.713 5.21031 111.043 5.55767 111.339C5.91226 111.629 6.29941 111.864 6.71913 112.045C7.14609 112.218 7.60923 112.305 8.10855 112.305C8.57892 112.305 9.03483 112.193 9.47626 111.969C9.91768 111.737 10.3265 111.437 10.7028 111.068C11.0791 110.692 11.4156 110.268 11.7123 109.798C12.0163 109.327 12.2623 108.85 12.4505 108.365C12.4722 108.293 12.5156 108.162 12.5807 107.974C12.6531 107.779 12.7255 107.544 12.7978 107.269C12.8702 106.994 12.9317 106.682 12.9824 106.335C13.0403 105.988 13.0692 105.619 13.0692 105.228C13.0692 104.881 13.0403 104.504 12.9824 104.099C12.9317 103.694 12.8485 103.278 12.7327 102.851C12.6242 102.417 12.4867 101.982 12.3202 101.548C12.1538 101.114 11.9584 100.698 11.7341 100.3C11.5387 99.9597 11.3107 99.6269 11.0502 99.3012C10.7897 98.9683 10.493 98.6753 10.1601 98.422C9.83446 98.1615 9.47264 97.9552 9.07463 97.8033C8.67662 97.6441 8.24242 97.5645 7.77205 97.5645C7.32338 97.5645 6.89643 97.6585 6.49118 97.8467C6.08593 98.0348 5.71687 98.27 5.38399 98.5522C5.05111 98.8272 4.75803 99.1239 4.50475 99.4423C4.25871 99.7535 4.0597 100.039 3.90773 100.3C3.79195 100.502 3.66893 100.756 3.53867 101.06C3.41565 101.364 3.29986 101.718 3.19132 102.123C3.09 102.529 3.00317 102.988 2.9308 103.502C2.86567 104.009 2.83311 104.566 2.83311 105.174Z" fill="#202020"/>
<path d="M28.0271 112.739C28.0127 112.739 27.9837 112.739 27.9403 112.739C27.8969 112.747 27.8462 112.75 27.7883 112.75C27.7377 112.758 27.6906 112.761 27.6472 112.761C27.6038 112.768 27.5749 112.772 27.5604 112.772C27.4808 112.772 27.4156 112.747 27.365 112.696C27.3216 112.638 27.2999 112.569 27.2999 112.49C27.2999 112.367 27.3397 112.287 27.4193 112.251C27.5061 112.215 27.6219 112.197 27.7666 112.197C27.8679 112.197 27.9801 112.204 28.1031 112.218C28.2261 112.226 28.3383 112.229 28.4396 112.229C28.5626 112.229 28.6676 112.215 28.7544 112.186C28.8485 112.157 28.8991 112.085 28.9064 111.969V104.305C28.8991 104.218 28.8811 104.175 28.8521 104.175C28.8087 104.175 28.7218 104.32 28.5916 104.609C28.5409 104.718 28.4794 104.841 28.4071 104.978C28.3347 105.116 28.2623 105.253 28.19 105.391C28.1248 105.528 28.0597 105.662 27.9946 105.792C27.9294 105.915 27.8788 106.02 27.8426 106.107C27.4374 106.968 27.0538 107.819 26.692 108.658C26.3302 109.49 25.9249 110.322 25.4763 111.155C25.4545 111.191 25.4147 111.263 25.3569 111.372C25.3062 111.473 25.2519 111.585 25.194 111.708C25.1361 111.831 25.0746 111.958 25.0095 112.088C24.9516 112.211 24.9046 112.316 24.8684 112.403C24.825 112.483 24.7888 112.533 24.7598 112.555C24.7309 112.577 24.6983 112.588 24.6621 112.588C24.597 112.588 24.5246 112.526 24.445 112.403C24.4089 112.36 24.3654 112.298 24.3148 112.218C24.2714 112.139 24.199 112.005 24.0977 111.817C24.0036 111.629 23.8734 111.372 23.7069 111.046C23.5405 110.713 23.3234 110.275 23.0556 109.733C22.7879 109.183 22.455 108.506 22.057 107.703C21.6662 106.9 21.1958 105.937 20.6459 104.815C20.5446 104.649 20.4577 104.486 20.3853 104.327C20.313 104.161 20.2008 104.016 20.0488 103.893C19.9837 104.436 19.9403 104.964 19.9186 105.478C19.8969 105.984 19.8716 106.502 19.8426 107.03C19.8064 107.645 19.7702 108.264 19.7341 108.886C19.7051 109.501 19.6906 110.116 19.6906 110.731C19.6906 110.847 19.6943 110.97 19.7015 111.1C19.7087 111.231 19.7304 111.354 19.7666 111.469C19.8028 111.585 19.8535 111.69 19.9186 111.784C19.991 111.871 20.0886 111.933 20.2117 111.969L21.46 112.229C21.4962 112.244 21.5179 112.276 21.5251 112.327C21.5323 112.37 21.536 112.407 21.536 112.436C21.536 112.595 21.4636 112.682 21.3189 112.696H20.7761C20.4867 112.696 20.208 112.689 19.9403 112.674C19.6725 112.653 19.4012 112.642 19.1262 112.642C18.8295 112.642 18.5364 112.653 18.2469 112.674C17.9647 112.689 17.6753 112.696 17.3786 112.696H17.0963C17.0602 112.682 17.0421 112.645 17.0421 112.588C17.0421 112.457 17.1072 112.352 17.2374 112.273C17.3677 112.193 17.5197 112.124 17.6934 112.066C17.8743 112.001 18.0516 111.94 18.2252 111.882C18.3989 111.817 18.5292 111.734 18.616 111.632C18.6956 111.531 18.7607 111.354 18.8114 111.1C18.8693 110.847 18.9127 110.565 18.9417 110.254C18.9561 110.08 18.9742 109.863 18.9959 109.602C19.0176 109.342 19.043 109.013 19.0719 108.615C19.1081 108.217 19.1479 107.743 19.1913 107.193C19.2347 106.643 19.289 105.991 19.3541 105.239C19.3831 105.029 19.4229 104.739 19.4735 104.37C19.5314 103.994 19.5604 103.56 19.5604 103.068C19.5604 102.916 19.4808 102.804 19.3216 102.731C19.1696 102.652 18.9959 102.59 18.8005 102.547C18.6124 102.496 18.4387 102.445 18.2795 102.395C18.1275 102.337 18.0516 102.254 18.0516 102.145C18.0516 102.073 18.0769 102.015 18.1275 101.972C18.1854 101.928 18.2506 101.899 18.3229 101.885C18.4025 101.863 18.4821 101.852 18.5617 101.852C18.6413 101.845 18.7101 101.841 18.768 101.841C18.7897 101.841 18.844 101.848 18.9308 101.863C19.0249 101.877 19.1226 101.892 19.2239 101.906C19.3324 101.921 19.4301 101.935 19.517 101.95C19.611 101.964 19.6689 101.972 19.6906 101.972H21.0475C21.1922 102.008 21.3008 102.066 21.3731 102.145C21.4527 102.218 21.5179 102.312 21.5685 102.427C21.5975 102.5 21.63 102.579 21.6662 102.666C21.7096 102.746 21.7567 102.844 21.8073 102.959C21.8652 103.068 21.9303 103.202 22.0027 103.361C22.0823 103.52 22.1764 103.708 22.2849 103.925C22.4586 104.287 22.6359 104.664 22.8168 105.054C22.9977 105.445 23.1787 105.836 23.3596 106.227C23.5405 106.617 23.7178 107.008 23.8915 107.399C24.0651 107.782 24.2352 108.152 24.4016 108.506C24.4161 108.542 24.4487 108.626 24.4993 108.756C24.55 108.886 24.6115 109.031 24.6839 109.19C24.7562 109.342 24.8286 109.494 24.9009 109.646C24.9806 109.791 25.0529 109.899 25.118 109.972C25.1687 110.037 25.2194 110.069 25.27 110.069C25.3134 110.069 25.3641 110.026 25.422 109.939C25.545 109.671 25.6861 109.364 25.8453 109.016C26.0118 108.662 26.1854 108.289 26.3664 107.898C26.5473 107.5 26.7318 107.095 26.9199 106.682C27.1153 106.27 27.3035 105.868 27.4844 105.478C27.6725 105.08 27.8498 104.703 28.0163 104.349C28.19 103.994 28.3455 103.679 28.483 103.404C28.512 103.346 28.5445 103.245 28.5807 103.1C28.6242 102.948 28.6712 102.796 28.7218 102.645C28.7797 102.485 28.8412 102.348 28.9064 102.232C28.9715 102.109 29.0403 102.047 29.1126 102.047H31.4464C31.4971 102.047 31.555 102.037 31.6201 102.015C31.6924 101.986 31.7467 101.972 31.7829 101.972C31.8697 101.972 31.9711 101.982 32.0868 102.004C32.2026 102.019 32.2786 102.076 32.3148 102.178C32.3365 102.25 32.3148 102.304 32.2497 102.341C32.1845 102.37 32.0977 102.395 31.9891 102.417C31.8806 102.431 31.7576 102.449 31.6201 102.471C31.4898 102.493 31.3632 102.529 31.2402 102.579C31.1244 102.63 31.0267 102.706 30.9471 102.807C30.8675 102.909 30.8277 103.046 30.8277 103.22V112.023C30.8277 112.103 30.8458 112.153 30.882 112.175C30.9688 112.197 31.0773 112.215 31.2076 112.229C31.3379 112.244 31.4717 112.262 31.6092 112.284C31.7467 112.298 31.8842 112.32 32.0217 112.349C32.1592 112.37 32.2786 112.399 32.3799 112.436C32.4161 112.464 32.4487 112.501 32.4776 112.544C32.5066 112.58 32.521 112.613 32.521 112.642C32.521 112.685 32.5029 112.721 32.4668 112.75C32.4306 112.779 32.3872 112.801 32.3365 112.815C32.2931 112.837 32.2424 112.852 32.1845 112.859C32.1339 112.866 32.0941 112.87 32.0651 112.87C31.5875 112.87 31.1099 112.848 30.6323 112.805C30.1619 112.761 29.6879 112.739 29.2103 112.739H28.0271Z" fill="#202020"/>
<path d="M37.7639 107.29L39.6201 107.214C39.9095 107.193 40.1303 107.124 40.2822 107.008C40.4342 106.885 40.5464 106.74 40.6187 106.574C40.6983 106.4 40.7562 106.212 40.7924 106.009C40.8358 105.807 40.8973 105.608 40.9769 105.412C40.9986 105.326 41.0348 105.282 41.0855 105.282C41.1868 105.282 41.2374 105.308 41.2374 105.358V105.792C41.2374 106.082 41.223 106.397 41.194 106.737C41.1723 107.07 41.1615 107.355 41.1615 107.594C41.1615 107.826 41.1796 108.072 41.2157 108.332C41.2592 108.593 41.2809 108.861 41.2809 109.136C41.2809 109.172 41.2773 109.23 41.27 109.309C41.2628 109.389 41.2519 109.472 41.2374 109.559C41.223 109.646 41.2013 109.722 41.1723 109.787C41.1506 109.852 41.118 109.885 41.0746 109.885C40.995 109.885 40.9444 109.848 40.9227 109.776C40.9082 109.697 40.8937 109.624 40.8792 109.559C40.8648 109.472 40.8394 109.367 40.8033 109.244C40.7671 109.121 40.7273 108.998 40.6839 108.875C40.6404 108.745 40.6006 108.629 40.5644 108.528C40.5283 108.427 40.5029 108.358 40.4885 108.322C40.4233 108.191 40.2967 108.09 40.1085 108.018C39.9204 107.938 39.7069 107.88 39.4681 107.844C39.2365 107.801 38.9941 107.775 38.7408 107.768C38.4948 107.754 38.2777 107.746 38.0896 107.746H37.7639C37.6481 107.746 37.5758 107.772 37.5468 107.822C37.5179 107.866 37.5034 107.938 37.5034 108.039V111.849C37.5034 112.066 37.5721 112.204 37.7096 112.262H41.0095C41.1542 112.262 41.3026 112.262 41.4545 112.262C41.6138 112.255 41.7187 112.237 41.7693 112.208C41.8779 112.179 41.9683 112.117 42.0407 112.023C42.1203 111.922 42.1854 111.828 42.2361 111.741C42.2578 111.705 42.2976 111.629 42.3555 111.513C42.4206 111.397 42.4858 111.274 42.5509 111.144C42.6232 111.006 42.6884 110.88 42.7463 110.764C42.8114 110.648 42.8584 110.572 42.8874 110.536C42.9308 110.449 43.0032 110.406 43.1045 110.406C43.1696 110.406 43.2166 110.431 43.2456 110.482V112.099C43.2456 112.164 43.2384 112.226 43.2239 112.284C43.2166 112.334 43.2058 112.399 43.1913 112.479C43.1624 112.58 43.1262 112.649 43.0828 112.685C43.0393 112.714 42.9561 112.743 42.8331 112.772C42.1022 112.772 41.4075 112.768 40.749 112.761C40.0977 112.754 39.4356 112.747 38.7626 112.739C38.0896 112.739 37.3804 112.736 36.635 112.729C35.8896 112.721 35.0574 112.718 34.1384 112.718C34.0154 112.718 33.9539 112.656 33.9539 112.533C33.9539 112.454 33.9937 112.392 34.0733 112.349C34.1529 112.305 34.2252 112.276 34.2904 112.262C34.3338 112.262 34.4025 112.258 34.4966 112.251C34.5979 112.244 34.7065 112.24 34.8223 112.24C34.938 112.233 35.0502 112.226 35.1588 112.218C35.2673 112.211 35.3614 112.208 35.441 112.208C35.6147 112.208 35.7015 112.07 35.7015 111.795V103.784C35.7015 103.661 35.687 103.509 35.6581 103.328C35.6364 103.147 35.5893 102.995 35.517 102.872C35.4663 102.836 35.441 102.818 35.441 102.818L33.9213 102.666C33.7838 102.666 33.7151 102.597 33.7151 102.46C33.7151 102.424 33.7223 102.38 33.7368 102.33C33.7512 102.272 33.7983 102.243 33.8779 102.243H35.6581C36.3528 102.243 37.0366 102.239 37.7096 102.232C38.3826 102.225 39.0014 102.221 39.5658 102.221H41.1072C41.223 102.221 41.3424 102.225 41.4654 102.232C41.5957 102.232 41.7187 102.236 41.8345 102.243C41.9502 102.243 42.0552 102.246 42.1493 102.254C42.2433 102.254 42.3157 102.254 42.3664 102.254C42.417 102.261 42.4568 102.286 42.4858 102.33C42.5147 102.373 42.5328 102.427 42.54 102.493C42.5545 102.55 42.5617 102.612 42.5617 102.677C42.569 102.735 42.5726 102.782 42.5726 102.818V104.588C42.5726 104.653 42.5473 104.685 42.4966 104.685C42.417 104.685 42.3555 104.635 42.3121 104.533C42.2759 104.425 42.218 104.298 42.1384 104.153C42.0733 103.994 41.9937 103.835 41.8996 103.676C41.8055 103.517 41.7368 103.393 41.6934 103.307C41.6282 103.184 41.5269 103.09 41.3894 103.024C41.2592 102.952 41.1108 102.898 40.9444 102.862C40.7779 102.818 40.6079 102.786 40.4342 102.764C40.2605 102.742 40.1085 102.717 39.9783 102.688C39.9349 102.688 39.8227 102.684 39.6418 102.677C39.4609 102.67 39.2546 102.666 39.0231 102.666C38.7987 102.659 38.5744 102.652 38.3501 102.645C38.133 102.637 37.9629 102.634 37.8399 102.634C37.6879 102.634 37.5938 102.677 37.5577 102.764C37.5215 102.851 37.5034 102.981 37.5034 103.155V107.03C37.5034 107.095 37.5251 107.156 37.5685 107.214C37.6192 107.265 37.6843 107.29 37.7639 107.29Z" fill="#202020"/>
<path d="M44.7436 107.442C44.7436 107.044 44.7906 106.657 44.8847 106.281C44.986 105.897 45.1199 105.539 45.2863 105.206C45.46 104.866 45.6626 104.555 45.8942 104.273C46.1257 103.991 46.3754 103.744 46.6432 103.535C46.8892 103.346 47.1678 103.173 47.479 103.014C47.7901 102.847 48.123 102.702 48.4776 102.579C48.8394 102.456 49.2194 102.359 49.6174 102.286C50.0154 102.214 50.4206 102.178 50.8331 102.178C51.3252 102.178 51.7847 102.221 52.2117 102.308C52.6459 102.395 53.0873 102.547 53.536 102.764C53.6156 102.815 53.6915 102.84 53.7639 102.84C53.829 102.818 53.8905 102.768 53.9484 102.688L54.133 102.536C54.1836 102.5 54.227 102.482 54.2632 102.482C54.4369 102.482 54.5237 102.59 54.5237 102.807V103.741C54.5237 103.842 54.5418 103.951 54.578 104.066C54.6214 104.175 54.6504 104.291 54.6649 104.414C54.6721 104.443 54.6757 104.508 54.6757 104.609V105.228C54.6757 105.271 54.6468 105.304 54.5889 105.326C54.531 105.347 54.4876 105.358 54.4586 105.358C54.2994 105.358 54.209 105.308 54.1872 105.206C54.0498 104.844 53.8833 104.508 53.6879 104.197C53.4925 103.886 53.2646 103.614 53.0041 103.383C52.7436 103.151 52.4432 102.97 52.1031 102.84C51.7702 102.702 51.3939 102.634 50.9742 102.634C50.4532 102.634 50.0045 102.706 49.6282 102.851C49.2592 102.988 48.901 103.205 48.5536 103.502C48.4378 103.589 48.3329 103.676 48.2388 103.763C48.152 103.842 48.0687 103.933 47.9891 104.034C47.9095 104.135 47.8299 104.247 47.7503 104.37C47.678 104.493 47.602 104.642 47.5224 104.815C47.327 105.192 47.1787 105.597 47.0773 106.031C46.976 106.458 46.9254 106.86 46.9254 107.236C46.9254 107.511 46.929 107.761 46.9362 107.985C46.9507 108.209 46.9796 108.434 47.0231 108.658C47.0665 108.875 47.1352 109.103 47.2293 109.342C47.3234 109.573 47.4536 109.841 47.6201 110.145C47.9457 110.789 48.3799 111.299 48.9227 111.676C49.4654 112.045 50.0769 112.229 50.7571 112.229C50.9742 112.229 51.166 112.222 51.3324 112.208C51.4989 112.186 51.6508 112.15 51.7883 112.099C51.9258 112.048 52.0561 111.976 52.1791 111.882C52.3094 111.781 52.4469 111.647 52.5916 111.48C52.6061 111.466 52.6278 111.43 52.6567 111.372C52.6929 111.314 52.711 111.267 52.711 111.231L52.8195 108.647C52.8195 108.56 52.7834 108.481 52.711 108.408C52.6386 108.329 52.5626 108.271 52.483 108.235C52.4179 108.213 52.3021 108.184 52.1357 108.148C51.9765 108.112 51.8137 108.076 51.6472 108.039C51.488 107.996 51.3505 107.956 51.2347 107.92C51.119 107.877 51.0792 107.837 51.1153 107.801C51.1153 107.721 51.1407 107.681 51.1913 107.681H55.5984C55.7793 107.681 55.8878 107.714 55.924 107.779C55.9674 107.844 55.9891 107.895 55.9891 107.931C55.9891 107.996 55.9493 108.043 55.8697 108.072C55.7974 108.101 55.7033 108.126 55.5875 108.148C55.479 108.162 55.3596 108.177 55.2293 108.191C55.1063 108.199 54.9977 108.213 54.9037 108.235C54.6938 108.271 54.5889 108.358 54.5889 108.495V111.22C54.5889 111.27 54.6323 111.296 54.7191 111.296C54.7987 111.296 54.8783 111.278 54.9579 111.242C55.0448 111.198 55.1461 111.176 55.2619 111.176H55.3921C55.45 111.176 55.4934 111.191 55.5224 111.22C55.602 111.278 55.6418 111.325 55.6418 111.361C55.6418 111.433 55.602 111.488 55.5224 111.524C55.45 111.56 55.3813 111.596 55.3161 111.632C54.8458 111.806 54.3899 111.962 53.9484 112.099C53.5142 112.229 53.0837 112.341 52.6567 112.436C52.237 112.53 51.8173 112.602 51.3976 112.653C50.9778 112.696 50.5509 112.718 50.1167 112.718C49.8489 112.718 49.5703 112.696 49.2809 112.653C48.9986 112.602 48.72 112.537 48.445 112.457C48.1701 112.378 47.9059 112.284 47.6526 112.175C47.4066 112.066 47.1823 111.947 46.9796 111.817C46.7047 111.629 46.4333 111.375 46.1655 111.057C45.905 110.739 45.6662 110.384 45.4491 109.993C45.2393 109.602 45.0692 109.19 44.9389 108.756C44.8087 108.314 44.7436 107.877 44.7436 107.442Z" fill="#202020"/>
<path d="M56.3582 112.414C56.3582 112.385 56.3799 112.341 56.4233 112.284C56.4595 112.226 56.5174 112.197 56.597 112.197C56.7128 112.197 56.8358 112.179 56.9661 112.142C57.1036 112.106 57.2338 112.052 57.3569 111.98C57.4871 111.9 57.6065 111.802 57.7151 111.687C57.8308 111.564 57.9285 111.419 58.0081 111.252L60.8847 104.436C60.8919 104.421 60.9064 104.389 60.9281 104.338C60.957 104.28 60.9715 104.233 60.9715 104.197C60.9715 104.117 60.9534 104.038 60.9172 103.958C60.8811 103.878 60.8376 103.806 60.787 103.741C60.7436 103.668 60.7038 103.607 60.6676 103.556C60.6314 103.498 60.6133 103.448 60.6133 103.404C60.6133 103.332 60.6386 103.274 60.6893 103.231C60.7399 103.187 60.7978 103.155 60.863 103.133C60.9353 103.104 61.0113 103.086 61.0909 103.079C61.1705 103.071 61.2393 103.061 61.2972 103.046C61.3623 103.017 61.4346 102.97 61.5142 102.905C61.5938 102.833 61.659 102.775 61.7096 102.731C61.7313 102.695 61.7494 102.648 61.7639 102.59C61.7784 102.532 61.7929 102.478 61.8073 102.427C61.829 102.377 61.8544 102.333 61.8833 102.297C61.9195 102.261 61.9665 102.243 62.0244 102.243C62.1692 102.243 62.256 102.304 62.2849 102.427L65.3894 111.719C65.4328 111.857 65.4799 111.965 65.5305 112.045C65.5884 112.117 65.6572 112.171 65.7368 112.208C65.8164 112.244 65.9032 112.265 65.9973 112.273C66.0986 112.28 66.2144 112.284 66.3446 112.284H66.7354C66.8005 112.284 66.8512 112.291 66.8874 112.305C66.9236 112.305 66.9634 112.331 67.0068 112.381C67.0574 112.432 67.0828 112.475 67.0828 112.512C67.0828 112.627 67.0176 112.689 66.8874 112.696C66.8729 112.711 66.8223 112.718 66.7354 112.718H66.1167C65.9068 112.718 65.6644 112.707 65.3894 112.685C65.1144 112.656 64.8394 112.642 64.5645 112.642C64.1158 112.642 63.6816 112.656 63.2619 112.685C62.8422 112.707 62.4695 112.718 62.1438 112.718C62.1076 112.718 62.0678 112.711 62.0244 112.696C61.9882 112.682 61.9701 112.653 61.9701 112.609C61.9701 112.566 61.9882 112.522 62.0244 112.479C62.0606 112.436 62.104 112.396 62.1547 112.36C62.2053 112.316 62.2596 112.284 62.3175 112.262C62.3826 112.24 62.4405 112.229 62.4912 112.229C62.5635 112.229 62.6359 112.233 62.7083 112.24C62.7806 112.247 62.8602 112.251 62.9471 112.251C63.1787 112.251 63.3668 112.226 63.5115 112.175C63.6346 112.132 63.6961 112.045 63.6961 111.915C63.6961 111.9 63.6924 111.882 63.6852 111.86C63.678 111.839 63.6707 111.806 63.6635 111.763C63.6346 111.697 63.5875 111.578 63.5224 111.404C63.4573 111.223 63.3885 111.028 63.3161 110.818C63.2438 110.608 63.1714 110.406 63.0991 110.21C63.0339 110.015 62.9833 109.863 62.9471 109.754C62.9181 109.689 62.8856 109.628 62.8494 109.57C62.8204 109.505 62.7662 109.472 62.6866 109.472H59.6364C59.4555 109.472 59.3397 109.559 59.289 109.733L58.8548 111.307C58.8403 111.357 58.8295 111.401 58.8223 111.437C58.815 111.473 58.8114 111.524 58.8114 111.589C58.8114 111.705 58.8186 111.799 58.8331 111.871C58.8548 111.936 58.8838 111.991 58.9199 112.034C58.9634 112.077 59.0176 112.11 59.0828 112.132C59.1551 112.146 59.2456 112.161 59.3541 112.175C59.3903 112.175 59.4482 112.182 59.5278 112.197C59.6147 112.204 59.7051 112.215 59.7992 112.229C59.8933 112.244 59.9801 112.258 60.0597 112.273C60.1465 112.28 60.2081 112.284 60.2442 112.284C60.2804 112.298 60.3311 112.334 60.3962 112.392C60.4686 112.443 60.5047 112.501 60.5047 112.566C60.5047 112.602 60.4903 112.638 60.4613 112.674C60.4324 112.703 60.3781 112.718 60.2985 112.718H59.962C59.8462 112.718 59.687 112.714 59.4844 112.707C59.289 112.7 59.09 112.696 58.8874 112.696C58.692 112.696 58.4568 112.7 58.1818 112.707C57.9068 112.714 57.6246 112.718 57.3351 112.718C57.299 112.718 57.2266 112.714 57.118 112.707C57.0095 112.692 56.8973 112.674 56.7815 112.653C56.673 112.624 56.5753 112.591 56.4885 112.555C56.4016 112.512 56.3582 112.464 56.3582 112.414ZM59.7123 108.506C59.7051 108.521 59.7015 108.56 59.7015 108.626V108.68C59.7015 108.759 59.7232 108.828 59.7666 108.886C59.8173 108.937 59.8824 108.962 59.962 108.962C60.4034 108.962 60.8195 108.98 61.2103 109.016C61.6083 109.045 61.9919 109.06 62.3609 109.06C62.4405 109.06 62.502 109.038 62.5455 108.995C62.5889 108.944 62.6106 108.897 62.6106 108.853V108.734C62.6106 108.72 62.607 108.705 62.5997 108.691C62.5853 108.669 62.5744 108.633 62.5672 108.582L61.4057 105.282C61.3478 105.13 61.2791 105.054 61.1995 105.054C61.1633 105.054 61.1235 105.069 61.0801 105.098C61.0366 105.127 61.0077 105.156 60.9932 105.185L59.7123 108.506Z" fill="#202020"/>
<path d="M75.0502 112.62C74.6594 112.62 74.2868 112.638 73.9322 112.674C73.5776 112.703 73.1868 112.718 72.7598 112.718H72.3256C72.2605 112.718 72.2135 112.678 72.1845 112.598C72.1556 112.512 72.1411 112.446 72.1411 112.403C72.1411 112.331 72.1484 112.269 72.1628 112.218C72.1845 112.161 72.2207 112.128 72.2714 112.121C72.351 112.099 72.445 112.081 72.5536 112.066C72.6621 112.052 72.7743 112.041 72.8901 112.034C73.0059 112.019 73.1144 112.012 73.2157 112.012C73.3243 112.005 73.4184 112.001 73.498 112.001C73.6716 112.001 73.8381 111.962 73.9973 111.882C74.1637 111.802 74.2976 111.705 74.3989 111.589C74.4713 111.495 74.5328 111.404 74.5835 111.318C74.6341 111.223 74.6775 111.097 74.7137 110.938C74.7571 110.778 74.7897 110.572 74.8114 110.319C74.8403 110.066 74.8693 109.733 74.8982 109.32L75.4084 100.007C75.4084 99.7825 75.3831 99.5581 75.3324 99.3338C75.2818 99.1022 75.1986 98.8887 75.0828 98.6934C74.9742 98.4907 74.8295 98.3171 74.6486 98.1723C74.4677 98.0276 74.2469 97.9263 73.9864 97.8684C73.9647 97.8611 73.9068 97.8539 73.8128 97.8467C73.7187 97.8322 73.6174 97.8177 73.5088 97.8033C73.4003 97.7888 73.299 97.7779 73.2049 97.7707C73.1108 97.7562 73.0493 97.749 73.0204 97.749C72.8756 97.72 72.7598 97.6911 72.673 97.6621C72.5934 97.6332 72.5536 97.5427 72.5536 97.3908C72.5536 97.3256 72.5572 97.2641 72.5645 97.2062C72.5717 97.1411 72.6006 97.1085 72.6513 97.1085H73.0963C73.2845 97.1085 73.4582 97.1158 73.6174 97.1303C73.7838 97.1447 73.9502 97.1628 74.1167 97.1845C74.2831 97.2062 74.4568 97.2243 74.6377 97.2388C74.8259 97.2533 75.0321 97.2605 75.2564 97.2605H76.2877C76.4107 97.2605 76.5228 97.2533 76.6242 97.2388C76.7327 97.2171 76.8738 97.2062 77.0475 97.2062C77.1777 97.2062 77.3152 97.2243 77.46 97.2605C77.6047 97.2895 77.7096 97.3546 77.7748 97.4559C77.8978 97.6006 78.0027 97.7635 78.0896 97.9444C78.1764 98.118 78.2524 98.3026 78.3175 98.498L81.9647 108.094C81.9937 108.166 82.0226 108.227 82.0516 108.278C82.0805 108.322 82.1131 108.343 82.1493 108.343C82.1999 108.343 82.2397 108.314 82.2687 108.256C82.2976 108.199 82.3193 108.144 82.3338 108.094L86.4369 97.3365C86.4803 97.2569 86.5418 97.2062 86.6214 97.1845C86.7083 97.1628 86.8024 97.152 86.9037 97.152C87.2655 97.152 87.6128 97.1447 87.9457 97.1303C88.2858 97.1158 88.6223 97.0977 88.9552 97.076C89.2953 97.0543 89.6355 97.0362 89.9756 97.0217C90.3229 97.0072 90.6884 97 91.0719 97C91.0936 97 91.1226 97 91.1588 97C91.2022 97 91.242 97.0072 91.2782 97.0217C91.3216 97.0289 91.3578 97.0434 91.3867 97.0651C91.4156 97.0868 91.4301 97.1158 91.4301 97.152C91.4301 97.2533 91.3867 97.3582 91.2999 97.4668C91.213 97.5681 91.1045 97.6187 90.9742 97.6187C90.6124 97.6187 90.3121 97.6621 90.0733 97.749C89.8345 97.8358 89.592 98.0131 89.346 98.2809C89.2374 98.3894 89.1506 98.5124 89.0855 98.6499C89.0203 98.7874 88.9661 98.9358 88.9227 99.095C88.8865 99.2469 88.8612 99.4062 88.8467 99.5726C88.8394 99.7318 88.8358 99.8874 88.8358 100.039L89.0095 111.632C89.0602 111.784 89.1832 111.889 89.3786 111.947C89.574 112.005 89.791 112.045 90.0299 112.066C90.2687 112.081 90.5002 112.095 90.7246 112.11C90.9561 112.117 91.1334 112.15 91.2564 112.208C91.3433 112.244 91.3939 112.291 91.4084 112.349C91.4229 112.399 91.4301 112.446 91.4301 112.49C91.4301 112.606 91.3686 112.678 91.2456 112.707C91.1298 112.729 90.9706 112.739 90.768 112.739C90.5364 112.739 90.3193 112.736 90.1167 112.729C89.9141 112.721 89.7114 112.718 89.5088 112.718C89.3134 112.711 89.1072 112.703 88.8901 112.696C88.673 112.689 88.4306 112.685 88.1628 112.685H86.502C86.2922 112.685 86.0896 112.689 85.8942 112.696C85.6988 112.696 85.5034 112.703 85.308 112.718C85.0764 112.739 84.8449 112.75 84.6133 112.75C84.5554 112.75 84.4939 112.747 84.4288 112.739C84.3709 112.739 84.313 112.729 84.2551 112.707C84.2044 112.685 84.161 112.653 84.1248 112.609C84.0959 112.559 84.0814 112.493 84.0814 112.414C84.0814 112.269 84.1719 112.175 84.3528 112.132C84.5337 112.081 84.7508 112.056 85.0041 112.056H85.46C85.6119 112.056 85.7531 112.052 85.8833 112.045C86.0208 112.038 86.1402 112.016 86.2415 111.98C86.3428 111.943 86.4224 111.893 86.4803 111.828C86.5455 111.755 86.578 111.658 86.578 111.535L86.4369 100.007C86.4369 99.9706 86.4297 99.9199 86.4152 99.8548C86.4007 99.7897 86.3754 99.7571 86.3392 99.7571C86.2886 99.7571 86.2488 99.768 86.2198 99.7897C86.1981 99.8042 86.18 99.8186 86.1655 99.8331L81.3026 112.49C81.2736 112.606 81.2302 112.664 81.1723 112.664C81.1144 112.664 81.0638 112.606 81.0204 112.49L76.1791 99.7246C76.1574 99.6377 76.114 99.5943 76.0489 99.5943C76.0199 99.5943 75.9946 99.6015 75.9729 99.616C75.9584 99.6305 75.9512 99.6667 75.9512 99.7246L75.6689 110.091C75.6689 110.178 75.6725 110.294 75.6798 110.438C75.6943 110.576 75.7123 110.72 75.7341 110.872C75.763 111.024 75.7956 111.173 75.8317 111.318C75.8752 111.462 75.9294 111.585 75.9946 111.687C76.0887 111.839 76.2298 111.951 76.4179 112.023C76.6133 112.088 76.8195 112.135 77.0366 112.164C77.261 112.186 77.4817 112.2 77.6988 112.208C77.9231 112.215 78.1113 112.229 78.2632 112.251C78.3501 112.258 78.408 112.291 78.4369 112.349C78.4731 112.407 78.4912 112.468 78.4912 112.533C78.4912 112.577 78.4659 112.613 78.4152 112.642C78.3718 112.671 78.3139 112.696 78.2415 112.718C78.1764 112.732 78.1004 112.739 78.0136 112.739C77.9267 112.747 77.8471 112.75 77.7748 112.75C77.507 112.75 77.2573 112.743 77.0258 112.729C76.7942 112.714 76.5699 112.7 76.3528 112.685C76.1357 112.671 75.9222 112.656 75.7123 112.642C75.5025 112.627 75.2818 112.62 75.0502 112.62Z" fill="#202020"/>
<path d="M96.3691 102.916V111.426C96.3691 111.462 96.3727 111.517 96.3799 111.589C96.3872 111.661 96.398 111.737 96.4125 111.817C96.4342 111.889 96.4631 111.954 96.4993 112.012C96.5355 112.07 96.5862 112.099 96.6513 112.099H97.8453C97.9249 112.099 97.9901 112.132 98.0407 112.197C98.0986 112.262 98.1275 112.334 98.1275 112.414C98.1275 112.479 98.095 112.548 98.0299 112.62C97.9647 112.685 97.8996 112.718 97.8345 112.718H94.4261C94.2813 112.718 94.1366 112.721 93.9919 112.729C93.8471 112.743 93.6879 112.75 93.5143 112.75C93.4129 112.75 93.3152 112.747 93.2212 112.739C93.1271 112.732 93.0403 112.718 92.9607 112.696C92.9172 112.667 92.8955 112.598 92.8955 112.49C92.8955 112.338 92.9317 112.251 93.0041 112.229C93.185 112.2 93.3406 112.179 93.4708 112.164C93.6011 112.142 93.7386 112.132 93.8833 112.132C93.9991 112.132 94.0787 112.132 94.1221 112.132C94.1728 112.124 94.2307 112.114 94.2958 112.099C94.3971 112.056 94.4478 111.904 94.4478 111.643V102.992C94.4478 102.905 94.4043 102.829 94.3175 102.764C94.2379 102.692 94.1583 102.655 94.0787 102.655C93.9123 102.655 93.782 102.67 93.6879 102.699C93.6011 102.72 93.4853 102.731 93.3406 102.731C93.2465 102.731 93.1524 102.724 93.0583 102.71C92.9643 102.688 92.8702 102.663 92.7761 102.634C92.7255 102.612 92.7001 102.569 92.7001 102.503C92.6784 102.409 92.6857 102.333 92.7218 102.275C92.7653 102.218 92.8232 102.174 92.8955 102.145C92.9679 102.109 93.0475 102.087 93.1343 102.08C93.2284 102.073 93.3152 102.069 93.3948 102.069H97.3026C97.4907 102.069 97.6101 102.069 97.6608 102.069C97.7114 102.069 97.744 102.076 97.7585 102.091C97.896 102.113 97.9647 102.192 97.9647 102.33C97.9647 102.482 97.8815 102.579 97.7151 102.623C97.5486 102.666 97.3641 102.692 97.1615 102.699C96.9661 102.706 96.7852 102.72 96.6187 102.742C96.4523 102.757 96.3691 102.815 96.3691 102.916Z" fill="#202020"/>
<path d="M99.6038 112.512C99.6038 112.345 99.6762 112.251 99.8209 112.229H100.233C100.364 112.229 100.483 112.229 100.592 112.229C100.7 112.222 100.794 112.208 100.874 112.186C100.953 112.164 101.015 112.128 101.058 112.077C101.109 112.027 101.134 111.958 101.134 111.871V103.122C101.134 103.043 101.102 102.977 101.037 102.927C100.972 102.869 100.899 102.84 100.82 102.84H99.8426C99.8064 102.84 99.763 102.836 99.7123 102.829C99.6617 102.822 99.6038 102.815 99.5387 102.807C99.5025 102.793 99.4699 102.764 99.441 102.72C99.4193 102.677 99.4084 102.637 99.4084 102.601C99.4084 102.464 99.4953 102.395 99.6689 102.395H102.339C102.361 102.395 102.415 102.391 102.502 102.384C102.596 102.377 102.694 102.37 102.795 102.362C102.896 102.355 102.987 102.348 103.066 102.341C103.146 102.333 103.193 102.33 103.208 102.33C103.309 102.322 103.421 102.315 103.544 102.308C103.674 102.301 103.779 102.297 103.859 102.297C103.881 102.297 103.92 102.301 103.978 102.308C104.036 102.308 104.098 102.312 104.163 102.319C104.228 102.319 104.289 102.322 104.347 102.33C104.412 102.33 104.456 102.33 104.478 102.33C104.579 102.351 104.63 102.409 104.63 102.503C104.63 102.583 104.604 102.663 104.554 102.742C104.51 102.793 104.441 102.818 104.347 102.818H103.153C103.103 102.818 103.063 102.847 103.034 102.905C103.005 102.956 102.98 103.021 102.958 103.1C102.943 103.173 102.933 103.249 102.925 103.328C102.925 103.408 102.925 103.477 102.925 103.535C102.925 103.911 102.943 104.287 102.98 104.664C103.016 105.033 103.034 105.456 103.034 105.934V111.925C103.034 111.976 103.045 112.038 103.066 112.11C103.095 112.175 103.142 112.208 103.208 112.208H106.681C106.877 112.208 107.061 112.121 107.235 111.947C107.408 111.773 107.568 111.571 107.712 111.339C107.864 111.108 107.995 110.88 108.103 110.655C108.219 110.424 108.313 110.254 108.385 110.145C108.429 110.095 108.472 110.069 108.516 110.069C108.552 110.069 108.584 110.102 108.613 110.167C108.642 110.268 108.657 110.359 108.657 110.438C108.664 110.511 108.668 110.619 108.668 110.764C108.668 110.822 108.657 110.909 108.635 111.024C108.621 111.133 108.599 111.249 108.57 111.372C108.548 111.495 108.526 111.614 108.505 111.73C108.49 111.839 108.483 111.925 108.483 111.991C108.483 112.027 108.483 112.077 108.483 112.142C108.483 112.2 108.479 112.262 108.472 112.327C108.472 112.392 108.469 112.454 108.461 112.512C108.454 112.562 108.443 112.598 108.429 112.62C108.327 112.685 108.237 112.718 108.157 112.718C107.253 112.718 106.287 112.711 105.259 112.696C104.232 112.674 103.208 112.664 102.187 112.664C102.006 112.664 101.818 112.667 101.623 112.674C101.427 112.682 101.239 112.692 101.058 112.707C100.877 112.714 100.704 112.721 100.537 112.729C100.378 112.736 100.241 112.739 100.125 112.739C99.9729 112.739 99.8462 112.732 99.7449 112.718C99.6508 112.696 99.6038 112.627 99.6038 112.512Z" fill="#202020"/>
<path d="M109.786 112.512C109.786 112.345 109.858 112.251 110.003 112.229H110.415C110.545 112.229 110.665 112.229 110.773 112.229C110.882 112.222 110.976 112.208 111.056 112.186C111.135 112.164 111.197 112.128 111.24 112.077C111.291 112.027 111.316 111.958 111.316 111.871V103.122C111.316 103.043 111.284 102.977 111.218 102.927C111.153 102.869 111.081 102.84 111.001 102.84H110.024C109.988 102.84 109.945 102.836 109.894 102.829C109.844 102.822 109.786 102.815 109.72 102.807C109.684 102.793 109.652 102.764 109.623 102.72C109.601 102.677 109.59 102.637 109.59 102.601C109.59 102.464 109.677 102.395 109.851 102.395H112.521C112.543 102.395 112.597 102.391 112.684 102.384C112.778 102.377 112.876 102.37 112.977 102.362C113.078 102.355 113.169 102.348 113.248 102.341C113.328 102.333 113.375 102.33 113.389 102.33C113.491 102.322 113.603 102.315 113.726 102.308C113.856 102.301 113.961 102.297 114.041 102.297C114.062 102.297 114.102 102.301 114.16 102.308C114.218 102.308 114.28 102.312 114.345 102.319C114.41 102.319 114.471 102.322 114.529 102.33C114.594 102.33 114.638 102.33 114.659 102.33C114.761 102.351 114.811 102.409 114.811 102.503C114.811 102.583 114.786 102.663 114.735 102.742C114.692 102.793 114.623 102.818 114.529 102.818H113.335C113.284 102.818 113.245 102.847 113.216 102.905C113.187 102.956 113.161 103.021 113.14 103.1C113.125 103.173 113.114 103.249 113.107 103.328C113.107 103.408 113.107 103.477 113.107 103.535C113.107 103.911 113.125 104.287 113.161 104.664C113.198 105.033 113.216 105.456 113.216 105.934V111.925C113.216 111.976 113.227 112.038 113.248 112.11C113.277 112.175 113.324 112.208 113.389 112.208H116.863C117.058 112.208 117.243 112.121 117.417 111.947C117.59 111.773 117.749 111.571 117.894 111.339C118.046 111.108 118.176 110.88 118.285 110.655C118.401 110.424 118.495 110.254 118.567 110.145C118.611 110.095 118.654 110.069 118.697 110.069C118.734 110.069 118.766 110.102 118.795 110.167C118.824 110.268 118.839 110.359 118.839 110.438C118.846 110.511 118.849 110.619 118.849 110.764C118.849 110.822 118.839 110.909 118.817 111.024C118.802 111.133 118.781 111.249 118.752 111.372C118.73 111.495 118.708 111.614 118.687 111.73C118.672 111.839 118.665 111.925 118.665 111.991C118.665 112.027 118.665 112.077 118.665 112.142C118.665 112.2 118.661 112.262 118.654 112.327C118.654 112.392 118.65 112.454 118.643 112.512C118.636 112.562 118.625 112.598 118.611 112.62C118.509 112.685 118.419 112.718 118.339 112.718C117.435 112.718 116.469 112.711 115.441 112.696C114.413 112.674 113.389 112.664 112.369 112.664C112.188 112.664 112 112.667 111.805 112.674C111.609 112.682 111.421 112.692 111.24 112.707C111.059 112.714 110.886 112.721 110.719 112.729C110.56 112.736 110.422 112.739 110.307 112.739C110.155 112.739 110.028 112.732 109.927 112.718C109.833 112.696 109.786 112.627 109.786 112.512Z" fill="#202020"/>
<path d="M123.463 102.916V111.426C123.463 111.462 123.466 111.517 123.474 111.589C123.481 111.661 123.492 111.737 123.506 111.817C123.528 111.889 123.557 111.954 123.593 112.012C123.629 112.07 123.68 112.099 123.745 112.099H124.939C125.019 112.099 125.084 112.132 125.134 112.197C125.192 112.262 125.221 112.334 125.221 112.414C125.221 112.479 125.189 112.548 125.123 112.62C125.058 112.685 124.993 112.718 124.928 112.718H121.52C121.375 112.718 121.23 112.721 121.085 112.729C120.941 112.743 120.782 112.75 120.608 112.75C120.507 112.75 120.409 112.747 120.315 112.739C120.221 112.732 120.134 112.718 120.054 112.696C120.011 112.667 119.989 112.598 119.989 112.49C119.989 112.338 120.025 112.251 120.098 112.229C120.279 112.2 120.434 112.179 120.564 112.164C120.695 112.142 120.832 112.132 120.977 112.132C121.093 112.132 121.172 112.132 121.216 112.132C121.266 112.124 121.324 112.114 121.389 112.099C121.491 112.056 121.541 111.904 121.541 111.643V102.992C121.541 102.905 121.498 102.829 121.411 102.764C121.332 102.692 121.252 102.655 121.172 102.655C121.006 102.655 120.876 102.67 120.782 102.699C120.695 102.72 120.579 102.731 120.434 102.731C120.34 102.731 120.246 102.724 120.152 102.71C120.058 102.688 119.964 102.663 119.87 102.634C119.819 102.612 119.794 102.569 119.794 102.503C119.772 102.409 119.779 102.333 119.815 102.275C119.859 102.218 119.917 102.174 119.989 102.145C120.062 102.109 120.141 102.087 120.228 102.08C120.322 102.073 120.409 102.069 120.488 102.069H124.396C124.584 102.069 124.704 102.069 124.754 102.069C124.805 102.069 124.838 102.076 124.852 102.091C124.99 102.113 125.058 102.192 125.058 102.33C125.058 102.482 124.975 102.579 124.809 102.623C124.642 102.666 124.458 102.692 124.255 102.699C124.06 102.706 123.879 102.72 123.712 102.742C123.546 102.757 123.463 102.815 123.463 102.916Z" fill="#202020"/>
<path d="M126.567 107.605C126.567 107.178 126.607 106.791 126.687 106.444C126.766 106.089 126.886 105.76 127.045 105.456C127.204 105.152 127.399 104.866 127.631 104.598C127.87 104.323 128.141 104.056 128.445 103.795C128.684 103.592 128.941 103.426 129.216 103.296C129.491 103.166 129.773 103.064 130.062 102.992C130.359 102.912 130.663 102.858 130.974 102.829C131.285 102.8 131.593 102.786 131.897 102.786C132.157 102.786 132.432 102.825 132.722 102.905C133.019 102.985 133.304 103.09 133.579 103.22C133.854 103.343 134.108 103.48 134.339 103.632C134.571 103.777 134.763 103.918 134.915 104.056C135.443 104.555 135.852 105.098 136.141 105.684C136.431 106.263 136.575 106.9 136.575 107.594C136.575 107.971 136.546 108.318 136.488 108.636C136.438 108.948 136.358 109.241 136.25 109.516C136.148 109.791 136.018 110.051 135.859 110.297C135.707 110.543 135.53 110.786 135.327 111.024C135.139 111.234 134.915 111.441 134.654 111.643C134.401 111.846 134.118 112.027 133.807 112.186C133.496 112.345 133.16 112.475 132.798 112.577C132.443 112.671 132.074 112.718 131.691 112.718C131.032 112.718 130.424 112.631 129.867 112.457C129.317 112.276 128.803 111.962 128.326 111.513C127.153 110.493 126.567 109.19 126.567 107.605ZM131.593 103.252C131.267 103.252 130.989 103.289 130.757 103.361C130.533 103.426 130.33 103.524 130.149 103.654C129.976 103.777 129.816 103.929 129.672 104.11C129.527 104.291 129.379 104.493 129.227 104.718C128.952 105.145 128.771 105.601 128.684 106.085C128.597 106.563 128.554 107.048 128.554 107.54C128.554 108.104 128.608 108.669 128.716 109.233C128.832 109.791 129.053 110.333 129.379 110.862C129.465 111.014 129.588 111.173 129.748 111.339C129.907 111.498 130.081 111.647 130.269 111.784C130.457 111.915 130.649 112.027 130.844 112.121C131.047 112.208 131.235 112.251 131.408 112.251C131.749 112.251 132.045 112.193 132.299 112.077C132.559 111.962 132.791 111.81 132.993 111.621C133.196 111.426 133.373 111.205 133.525 110.959C133.684 110.706 133.836 110.445 133.981 110.178C134.162 109.823 134.292 109.443 134.372 109.038C134.459 108.626 134.502 108.18 134.502 107.703C134.502 107.363 134.477 107.044 134.426 106.748C134.383 106.451 134.31 106.165 134.209 105.89C134.115 105.615 133.995 105.347 133.851 105.087C133.706 104.819 133.536 104.548 133.341 104.273C133.145 103.976 132.896 103.734 132.592 103.545C132.295 103.35 131.962 103.252 131.593 103.252Z" fill="#202020"/>
<path d="M138.844 112.718C138.772 112.718 138.692 112.714 138.605 112.707C138.518 112.7 138.435 112.685 138.355 112.664C138.283 112.635 138.222 112.595 138.171 112.544C138.12 112.493 138.095 112.425 138.095 112.338C138.095 112.273 138.099 112.215 138.106 112.164C138.12 112.114 138.16 112.074 138.225 112.045C138.457 112.009 138.649 111.983 138.801 111.969C138.96 111.954 139.094 111.922 139.202 111.871C139.311 111.82 139.398 111.734 139.463 111.611C139.535 111.48 139.597 111.285 139.647 111.024C139.647 110.409 139.651 109.776 139.658 109.125C139.673 108.474 139.694 107.844 139.723 107.236C139.738 106.795 139.774 106.368 139.832 105.955C139.897 105.536 139.929 105.105 139.929 104.664C139.929 104.584 139.926 104.526 139.919 104.49C139.911 104.454 139.89 104.385 139.853 104.284C139.832 104.247 139.788 104.182 139.723 104.088C139.658 103.987 139.586 103.886 139.506 103.784C139.426 103.676 139.347 103.574 139.267 103.48C139.195 103.379 139.141 103.31 139.104 103.274C139.032 103.187 138.927 103.118 138.79 103.068C138.652 103.01 138.515 102.956 138.377 102.905C138.247 102.847 138.131 102.786 138.03 102.72C137.936 102.648 137.889 102.55 137.889 102.427C137.889 102.362 137.91 102.312 137.954 102.275C138.005 102.232 138.062 102.199 138.128 102.178C138.2 102.156 138.269 102.142 138.334 102.134C138.406 102.127 138.464 102.123 138.507 102.123C138.522 102.123 138.551 102.127 138.594 102.134C138.638 102.142 138.685 102.152 138.735 102.167C138.786 102.174 138.833 102.181 138.877 102.189C138.92 102.196 138.953 102.199 138.974 102.199H140.125C140.161 102.214 140.219 102.246 140.299 102.297C140.378 102.341 140.432 102.377 140.461 102.406C141.011 103.006 141.55 103.596 142.079 104.175C142.607 104.754 143.128 105.326 143.642 105.89C144.163 106.455 144.68 107.015 145.194 107.573C145.715 108.13 146.24 108.694 146.768 109.266C146.804 109.302 146.837 109.335 146.866 109.364C146.895 109.385 146.924 109.407 146.953 109.429C146.981 109.443 147.007 109.45 147.029 109.45C147.094 109.45 147.144 109.422 147.18 109.364C147.217 109.299 147.235 109.259 147.235 109.244V105.695C147.235 105.441 147.228 105.185 147.213 104.924C147.206 104.664 147.191 104.421 147.17 104.197C147.148 103.965 147.119 103.759 147.083 103.578C147.047 103.397 147.003 103.263 146.953 103.176C146.851 103.01 146.696 102.894 146.486 102.829C146.276 102.764 146.066 102.717 145.856 102.688C145.646 102.652 145.462 102.616 145.303 102.579C145.151 102.543 145.075 102.474 145.075 102.373C145.075 102.171 145.194 102.069 145.433 102.069H149.547C149.684 102.069 149.753 102.152 149.753 102.319C149.753 102.391 149.673 102.453 149.514 102.503C149.355 102.547 149.174 102.605 148.972 102.677C148.769 102.749 148.57 102.844 148.374 102.959C148.186 103.075 148.06 103.234 147.995 103.437C147.915 103.618 147.861 103.813 147.832 104.023C147.803 104.233 147.788 104.522 147.788 104.891V112.49C147.788 112.555 147.763 112.609 147.712 112.653C147.662 112.696 147.622 112.718 147.593 112.718C147.499 112.718 147.394 112.649 147.278 112.512C147.249 112.475 147.155 112.37 146.996 112.197C146.844 112.023 146.645 111.802 146.399 111.535C146.153 111.267 145.871 110.963 145.552 110.623C145.234 110.283 144.901 109.924 144.554 109.548C144.206 109.172 143.852 108.788 143.49 108.398C143.128 108.007 142.781 107.63 142.448 107.269C142.115 106.907 141.8 106.57 141.503 106.259C141.214 105.941 140.968 105.669 140.765 105.445C140.693 105.387 140.628 105.358 140.57 105.358C140.454 105.358 140.382 105.431 140.353 105.575C140.324 105.72 140.309 105.872 140.309 106.031C140.309 106.104 140.309 106.212 140.309 106.357C140.317 106.494 140.324 106.657 140.331 106.845C140.338 107.026 140.346 107.222 140.353 107.431C140.367 107.634 140.378 107.833 140.385 108.028C140.393 108.217 140.396 108.39 140.396 108.55C140.403 108.709 140.407 108.835 140.407 108.929V109.45C140.407 109.617 140.407 109.805 140.407 110.015C140.414 110.225 140.425 110.431 140.44 110.634C140.461 110.836 140.487 111.021 140.516 111.187C140.552 111.354 140.602 111.48 140.668 111.567C140.74 111.683 140.834 111.766 140.95 111.817C141.066 111.867 141.189 111.904 141.319 111.925C141.449 111.94 141.579 111.951 141.71 111.958C141.847 111.958 141.967 111.969 142.068 111.991C142.176 112.012 142.263 112.056 142.328 112.121C142.393 112.179 142.426 112.273 142.426 112.403C142.426 112.468 142.419 112.522 142.404 112.566C142.397 112.602 142.357 112.653 142.285 112.718H138.844Z" fill="#202020"/>
</svg>
