<svg width="29" height="32" viewBox="0 0 29 32" fill="none" xmlns="http://www.w3.org/2000/svg">
<path d="M28.1606 4.84512H6.14464C5.92496 4.84512 5.71427 4.93239 5.55893 5.08773C5.40359 5.24307 5.31632 5.45376 5.31632 5.67344C5.31632 5.89313 5.40359 6.10381 5.55893 6.25915C5.71427 6.41449 5.92496 6.50176 6.14464 6.50176H27.3322V21.3701H0.82832C0.608636 21.3701 0.397949 21.4574 0.242609 21.6127C0.0872691 21.768 0 21.9787 0 22.1984C0 22.4181 0.0872691 22.6288 0.242609 22.7841C0.397949 22.9395 0.608636 23.0267 0.82832 23.0267H13.6661V27.6574L8.14096 30.1222C8.04161 30.1666 7.95196 30.23 7.87712 30.309C7.80229 30.3879 7.74374 30.4809 7.70482 30.5824C7.66591 30.684 7.64738 30.7923 7.6503 30.901C7.65322 31.0098 7.67753 31.1169 7.72184 31.2162C7.76615 31.3156 7.8296 31.4052 7.90856 31.4801C7.98752 31.5549 8.08045 31.6135 8.18204 31.6524C8.28362 31.6913 8.39188 31.7098 8.50063 31.7069C8.60938 31.704 8.71649 31.6797 8.81584 31.6354L14.4944 29.1021L20.173 31.6354C20.2827 31.6842 20.397 31.7074 20.5098 31.7074C20.6996 31.7075 20.8837 31.6424 21.0312 31.523C21.1788 31.4037 21.2809 31.2373 21.3205 31.0516C21.3601 30.866 21.3347 30.6724 21.2486 30.5032C21.1626 30.334 21.021 30.1996 20.8477 30.1222L15.3227 27.6574V23.0267H28.1603C28.38 23.0267 28.5906 22.9395 28.7459 22.7842C28.9012 22.6288 28.9885 22.4182 28.9885 22.1986V5.67328C28.9885 5.56454 28.9672 5.45684 28.9256 5.35636C28.884 5.25588 28.8231 5.16457 28.7462 5.08766C28.6693 5.01075 28.578 4.94974 28.4775 4.90813C28.3771 4.86651 28.2694 4.8451 28.1606 4.84512Z" fill="#156C59"/>
<path d="M0.82832 20.2286H22.8446C23.0643 20.2286 23.2751 20.1414 23.4304 19.986C23.5858 19.8306 23.673 19.6199 23.673 19.4002C23.673 19.1805 23.5858 18.9698 23.4304 18.8145C23.2751 18.6591 23.0643 18.5718 22.8446 18.5718H1.6568V3.70383H28.1605C28.2693 3.70383 28.377 3.6824 28.4775 3.64076C28.578 3.59912 28.6693 3.53809 28.7462 3.46116C28.8231 3.38422 28.8841 3.29289 28.9257 3.19238C28.9673 3.09186 28.9887 2.98414 28.9886 2.87535C28.9887 2.76658 28.9673 2.65886 28.9257 2.55836C28.884 2.45785 28.823 2.36653 28.7461 2.2896C28.6692 2.21266 28.5779 2.15163 28.4775 2.10999C28.377 2.06834 28.2693 2.04689 28.1605 2.04687H15.3229V1.33999C15.3244 1.23024 15.3041 1.12127 15.2632 1.01943C15.2222 0.917586 15.1614 0.824895 15.0844 0.746741C15.0073 0.668587 14.9155 0.606528 14.8142 0.564171C14.7129 0.521813 14.6042 0.5 14.4945 0.5C14.3847 0.5 14.276 0.521813 14.1748 0.564171C14.0735 0.606528 13.9817 0.668587 13.9046 0.746741C13.8275 0.824895 13.7668 0.917586 13.7258 1.01943C13.6849 1.12127 13.6646 1.23024 13.6661 1.33999V2.04687H0.82832C0.71953 2.04687 0.611806 2.0683 0.511299 2.10994C0.410792 2.15158 0.319471 2.21261 0.242553 2.28954C0.165634 2.36647 0.104624 2.4578 0.063006 2.55832C0.0213884 2.65883 -2.09986e-05 2.76656 1.54545e-08 2.87535V19.4002C-2.09986e-05 19.5089 0.0213884 19.6167 0.063006 19.7172C0.104624 19.8177 0.165634 19.909 0.242553 19.986C0.319471 20.0629 0.410792 20.1239 0.511299 20.1656C0.611806 20.2072 0.71953 20.2286 0.82832 20.2286ZM25.6394 18.5718H25.3642C25.2554 18.5719 25.1477 18.5933 25.0472 18.6349C24.9467 18.6766 24.8554 18.7376 24.7785 18.8146C24.7016 18.8915 24.6406 18.9828 24.599 19.0833C24.5574 19.1838 24.536 19.2915 24.536 19.4003C24.536 19.5091 24.5574 19.6168 24.599 19.7173C24.6406 19.8178 24.7016 19.9091 24.7785 19.986C24.8554 20.0629 24.9467 20.124 25.0472 20.1656C25.1477 20.2072 25.2554 20.2286 25.3642 20.2286H25.6394C25.8591 20.2286 26.0698 20.1414 26.2251 19.986C26.3805 19.8306 26.4678 19.6199 26.4678 19.4002C26.4678 19.1805 26.3805 18.9698 26.2251 18.8145C26.0698 18.6591 25.8591 18.5718 25.6394 18.5718Z" fill="#156C59"/>
</svg>
