<svg width="48" height="49" viewBox="0 0 48 49" fill="none" xmlns="http://www.w3.org/2000/svg">
<path d="M43.077 20.3189L24.4913 13.0306C24.3056 12.958 24.0995 12.9573 23.9135 13.0288L4.92851 20.3167C4.77815 20.3745 4.64878 20.4764 4.55734 20.609C4.46591 20.7417 4.41669 20.8988 4.41614 21.0599C4.41555 21.2209 4.46368 21.3783 4.55419 21.5115C4.6447 21.6446 4.77337 21.7473 4.9233 21.806L6.7307 22.5147V25.3666C6.19955 25.6524 5.83447 26.2073 5.83447 26.8527C5.83447 27.321 6.02428 27.7451 6.33121 28.0514V32.3343C6.33119 32.4916 6.36216 32.6474 6.42235 32.7928C6.48254 32.9381 6.57078 33.0702 6.68202 33.1815C6.79326 33.2928 6.92532 33.381 7.07067 33.4412C7.21602 33.5015 7.37181 33.5325 7.52915 33.5325C7.6865 33.5325 7.84231 33.5016 7.98769 33.4414C8.13306 33.3811 8.26515 33.2929 8.3764 33.1816C8.48765 33.0703 8.57588 32.9382 8.63606 32.7928C8.69623 32.6474 8.72716 32.4916 8.72709 32.3343V28.0514C8.88505 27.8944 9.01033 27.7076 9.09571 27.5018C9.18108 27.2961 9.22486 27.0754 9.22451 26.8527C9.22451 26.2073 8.85916 25.6524 8.32801 25.3666V23.1409L12.9459 24.9515C12.9459 24.9622 12.943 24.9718 12.943 24.9822C12.9512 31.0709 17.9113 36.0242 24.0001 36.0242C30.097 36.0242 35.0577 31.0642 35.0577 24.9672V24.9057C35.0577 24.8985 35.0556 24.8924 35.0556 24.8855L43.0715 21.8082C43.2219 21.7504 43.3513 21.6486 43.4427 21.516C43.5342 21.3833 43.5834 21.2262 43.5839 21.0651C43.5845 20.9041 43.5364 20.7467 43.446 20.6135C43.3555 20.4804 43.2269 20.3777 43.077 20.3189ZM24 34.4269C18.9947 34.4269 14.8833 30.5137 14.5625 25.5859L23.509 29.094C23.6946 29.1667 23.9005 29.1674 24.0865 29.0959L33.4435 25.504C33.1644 30.4711 29.0363 34.4269 24 34.4269ZM23.8033 27.4937L7.8406 21.2345C7.8406 21.2345 7.84033 21.2345 7.84033 21.2342L7.42245 21.0707L24.1968 14.6315L40.5774 21.0544L23.8033 27.4937Z" fill="#156C59"/>
</svg>
