<svg width="48" height="49" viewBox="0 0 48 49" fill="none" xmlns="http://www.w3.org/2000/svg">
<path d="M15 25.4999C17.121 25.4975 19.1544 24.6539 20.6542 23.1541C22.154 21.6543 22.9976 19.6209 23 17.4999V11.4999C22.9893 10.0163 22.5702 8.56443 21.7885 7.30349C21.0068 6.04255 19.8929 5.02131 18.569 4.35186C18.6315 3.47214 18.7653 2.59894 18.969 1.74086C19.0121 1.56725 19.0078 1.38527 18.9566 1.21388C18.9053 1.0425 18.8091 0.887982 18.6779 0.766445C18.5466 0.644908 18.3852 0.560797 18.2104 0.522879C18.0356 0.484962 17.8538 0.494625 17.684 0.550863C17.355 0.660863 14.808 1.56786 14.153 3.54386C12.19 3.75577 10.3743 4.68497 9.05422 6.15323C7.73415 7.62149 7.00264 9.52543 7 11.4999V17.4999C7.00238 19.6209 7.846 21.6543 9.34578 23.1541C10.8456 24.6539 12.879 25.4975 15 25.4999ZM15 5.49986C15.2652 5.49986 15.5196 5.39451 15.7071 5.20697C15.8946 5.01943 16 4.76508 16 4.49986C16.0226 4.27878 16.0921 4.06506 16.2038 3.87297C16.3156 3.68087 16.467 3.51481 16.648 3.38586C16.5786 3.93097 16.5498 4.48049 16.562 5.02986C16.5689 5.22407 16.6323 5.41206 16.7444 5.57083C16.8564 5.7296 17.0123 5.85228 17.193 5.92386C18.3093 6.37058 19.2674 7.13936 19.9453 8.13234C20.6233 9.12531 20.9904 10.2976 21 11.4999V11.7769L15.5 8.63186C15.3137 8.52532 15.098 8.48154 14.8849 8.507C14.6718 8.53247 14.4726 8.62582 14.3166 8.77326C14.1606 8.9207 14.0562 9.11441 14.0189 9.32576C13.9815 9.5371 14.0131 9.75486 14.109 9.94686L14.933 11.5949L12.376 10.5709C12.1429 10.4774 11.8831 10.4751 11.6484 10.5644C11.4136 10.6537 11.2211 10.8281 11.109 11.0529L10.616 12.0399L9.026 10.9819C9.15692 9.48697 9.84271 8.09525 10.9483 7.08066C12.054 6.06608 13.4994 5.50214 15 5.49986ZM9 13.3679L10.445 14.3319C10.563 14.4107 10.6965 14.4634 10.8364 14.4867C10.9764 14.5099 11.1198 14.5031 11.2569 14.4667C11.3941 14.4303 11.5219 14.3651 11.6319 14.2755C11.7419 14.1858 11.8316 14.0738 11.895 13.9469L12.483 12.7699L16.628 14.4289C16.8166 14.5062 17.0244 14.524 17.2234 14.48C17.4225 14.4359 17.6033 14.3321 17.7417 14.1824C17.88 14.0327 17.9694 13.8443 17.9977 13.6424C18.026 13.4405 17.9919 13.2348 17.9 13.0529L17.377 12.0069L21 14.0799V17.4999C21 19.0912 20.3679 20.6173 19.2426 21.7425C18.1174 22.8677 16.5913 23.4999 15 23.4999C13.4087 23.4999 11.8826 22.8677 10.7574 21.7425C9.63214 20.6173 9 19.0912 9 17.4999V13.3679Z" fill="#156C59"/>
<path d="M15 21.4999C15.7956 21.4999 16.5587 21.1838 17.1213 20.6212C17.6839 20.0586 18 19.2955 18 18.4999H16C16 18.7651 15.8946 19.0194 15.7071 19.207C15.5196 19.3945 15.2652 19.4999 15 19.4999C14.7348 19.4999 14.4804 19.3945 14.2929 19.207C14.1054 19.0194 14 18.7651 14 18.4999H12C12 19.2955 12.3161 20.0586 12.8787 20.6212C13.4413 21.1838 14.2044 21.4999 15 21.4999ZM31.293 29.7929L27.937 33.1489L25.949 27.1839C25.8651 26.9326 25.6854 26.7245 25.449 26.6049L21.449 24.6049V24.6169C21.3486 24.5527 21.2365 24.5091 21.1192 24.4886C21.0018 24.4681 20.8816 24.4711 20.7654 24.4974C20.6492 24.5237 20.5394 24.5729 20.4423 24.642C20.3453 24.711 20.2629 24.7987 20.2 24.8999L19 26.4999C18.5343 27.1208 17.9303 27.6249 17.2361 27.972C16.5418 28.3191 15.7762 28.4999 15 28.4999C14.2238 28.4999 13.4582 28.3191 12.7639 27.972C12.0697 27.6249 11.4657 27.1208 11 26.4999L9.8 24.8999C9.7371 24.7997 9.65506 24.7128 9.55857 24.6444C9.46208 24.5759 9.35304 24.5271 9.23768 24.5008C9.12232 24.4746 9.00291 24.4713 8.88629 24.4912C8.76966 24.5111 8.6581 24.5538 8.558 24.6169V24.6049L4.558 26.6049C4.32159 26.7245 4.14192 26.9326 4.058 27.1839L0.058 39.1839C0.0217618 39.2854 0.0021757 39.3921 0 39.4999L0 47.4999C0 47.7651 0.105357 48.0194 0.292893 48.207C0.48043 48.3945 0.734784 48.4999 1 48.4999H15C15.1945 48.4998 15.3847 48.4429 15.5474 48.3364C15.7101 48.2298 15.8382 48.0781 15.916 47.8999C16.5413 48.2899 17.263 48.4977 18 48.4999H29C29.2652 48.4999 29.5196 48.3945 29.7071 48.207C29.8946 48.0194 30 47.7651 30 47.4999V39.4999C30.0001 39.3925 29.9829 39.2858 29.949 39.1839L28.644 35.2699L32.707 31.2069L31.293 29.7929ZM20 28.3999V30.1119L18.453 29.5999C19.0227 29.2748 19.5435 28.8708 20 28.3999ZM10 28.3999C10.4565 28.8708 10.9773 29.2748 11.547 29.5999L10 30.1119V28.3999ZM18 46.4999C17.6044 46.4999 17.2178 46.3826 16.8889 46.1628C16.56 45.943 16.3036 45.6307 16.1522 45.2652C16.0009 44.8998 15.9613 44.4976 16.0384 44.1097C16.1156 43.7217 16.3061 43.3654 16.5858 43.0856C16.8655 42.8059 17.2219 42.6155 17.6098 42.5383C17.9978 42.4611 18.3999 42.5007 18.7654 42.6521C19.1308 42.8035 19.4432 43.0598 19.6629 43.3887C19.8827 43.7176 20 44.1043 20 44.4999C20 45.0303 19.7893 45.539 19.4142 45.9141C19.0391 46.2892 18.5304 46.4999 18 46.4999ZM18 40.4999C17.0007 40.5027 16.0392 40.8819 15.307 41.5619C15.2086 41.5249 15.105 41.504 15 41.4999H8V37.4999H6V42.4999C6 42.7651 6.10536 43.0194 6.29289 43.207C6.48043 43.3945 6.73478 43.4999 7 43.4999H14V46.4999H2V39.6619L5.818 28.2089L8 27.1179V31.4999C8.00012 31.6582 8.03785 31.8143 8.11009 31.9552C8.18233 32.0962 8.287 32.2179 8.4155 32.3105C8.544 32.4031 8.69265 32.4638 8.8492 32.4877C9.00576 32.5116 9.16575 32.4979 9.316 32.4479L15 30.5539L20.684 32.4479C20.7858 32.4824 20.8925 32.4999 21 32.4999C21.2652 32.4999 21.5196 32.3945 21.7071 32.207C21.8946 32.0194 22 31.7651 22 31.4999V27.1179L24.182 28.2089L26.356 34.7299L20.019 41.0669C19.4094 40.6993 18.7118 40.5033 18 40.4999ZM28 46.4999H21.444C21.8096 45.8929 22.0019 45.1974 21.9999 44.4888C21.998 43.7803 21.8019 43.0858 21.433 42.4809L27.063 36.8509L28 39.6619V46.4999ZM47 1.49986H27C26.7348 1.49986 26.4804 1.60522 26.2929 1.79276C26.1054 1.98029 26 2.23465 26 2.49986V20.4999C26 20.7651 26.1054 21.0194 26.2929 21.207C26.4804 21.3945 26.7348 21.4999 27 21.4999H30V25.4999C30 25.6976 30.0585 25.891 30.1684 26.0554C30.2782 26.2199 30.4343 26.3481 30.617 26.4239C30.7383 26.4744 30.8685 26.5003 31 26.4999C31.2652 26.4998 31.5195 26.3944 31.707 26.2069L36.414 21.4999H47C47.2652 21.4999 47.5196 21.3945 47.7071 21.207C47.8946 21.0194 48 20.7651 48 20.4999V2.49986C48 2.23465 47.8946 1.98029 47.7071 1.79276C47.5196 1.60522 47.2652 1.49986 47 1.49986ZM46 19.4999H36C35.7348 19.4999 35.4805 19.6053 35.293 19.7929L32 23.0859V20.4999C32 20.2346 31.8946 19.9803 31.7071 19.7928C31.5196 19.6052 31.2652 19.4999 31 19.4999H28V3.49986H46V19.4999Z" fill="#156C59"/>
</svg>
